<svg id="图层_1" data-name="图层 1" xmlns="http://www.w3.org/2000/svg" viewBox="0 0 442 106"><defs><style>.cls-1{fill:#fff;}</style></defs><path class="cls-1" d="M24.6,77.54c-1.31,3.08-6.15,3.85-6.15,3.85H30.76S25.92,80.62,24.6,77.54Z"/><path class="cls-1" d="M36.91,77.54c-1.32,3.08-6.15,3.85-6.15,3.85h12.3S38.23,80.62,36.91,77.54Z"/><path class="cls-1" d="M43.06,81.39h6c-.59-.57-1.14-1.15-1.68-1.73A12.11,12.11,0,0,1,43.06,81.39Z"/><path class="cls-1" d="M49.22,77.54a4.81,4.81,0,0,1-1,1.38c.78.84,1.62,1.66,2.52,2.47h4.61S50.53,80.62,49.22,77.54Z"/><path class="cls-1" d="M67.67,81.39s-4.83-.77-6.15-3.85c-1.31,3.08-6.15,3.85-6.15,3.85h12.3Z"/><path class="cls-1" d="M74,81.39h6a12,12,0,0,1-4.31-1.74C75.13,80.24,74.58,80.82,74,81.39Z"/><path class="cls-1" d="M73.83,77.54c-1.32,3.08-6.16,3.85-6.16,3.85h4.6c.9-.81,1.75-1.64,2.53-2.48A4.43,4.43,0,0,1,73.83,77.54Z"/><path class="cls-1" d="M86.13,77.54C84.82,80.62,80,81.39,80,81.39H92.29S87.45,80.62,86.13,77.54Z"/><path class="cls-1" d="M98.44,77.54c-1.32,3.08-6.15,3.85-6.15,3.85h12.3S99.76,80.62,98.44,77.54Z"/><polygon class="cls-1" points="46.59 16.99 60.95 16.99 60.95 16.42 46.01 16.42 46.01 24.07 46.59 24.07 46.59 16.99"/><polygon class="cls-1" points="47.16 17.56 60.95 17.56 60.95 16.99 46.59 16.99 46.59 24.07 47.16 24.07 47.16 17.56"/><polygon class="cls-1" points="76.46 16.99 76.46 24.07 77.03 24.07 77.03 16.42 62.09 16.42 62.09 16.99 76.46 16.99"/><polygon class="cls-1" points="61.52 16.99 62.09 16.99 62.09 16.42 60.95 16.42 60.95 16.99 61.52 16.99"/><polygon class="cls-1" points="60.95 20.56 61.52 20.56 61.52 16.99 60.95 16.99 60.95 17.56 60.95 20.56"/><polygon class="cls-1" points="75.89 17.56 75.89 24.07 76.46 24.07 76.46 16.99 62.09 16.99 62.09 17.56 75.89 17.56"/><polygon class="cls-1" points="62.09 20.56 62.09 17.56 62.09 16.99 61.52 16.99 61.52 20.56 62.09 20.56"/><path class="cls-1" d="M39.12,33.44v-8.8H46v-.57H38.54v9.39A5.72,5.72,0,0,0,39.12,33.44Z"/><rect class="cls-1" x="47.16" y="24.07" width="6.33" height="0.57"/><rect class="cls-1" x="46.01" y="24.07" width="0.57" height="0.57"/><rect class="cls-1" x="46.59" y="24.07" width="0.57" height="0.57"/><path class="cls-1" d="M39.69,25.21H46v-.57H39.12v8.8l.57-.08Z"/><rect class="cls-1" x="47.16" y="24.64" width="6.33" height="0.57"/><rect class="cls-1" x="46.01" y="24.64" width="0.57" height="0.57"/><rect class="cls-1" x="46.59" y="24.64" width="0.57" height="0.57"/><path class="cls-1" d="M83.93,24.64v8.8a5.52,5.52,0,0,0,.57,0V24.07H77v.57Z"/><rect class="cls-1" x="69.56" y="24.07" width="6.33" height="0.57"/><rect class="cls-1" x="76.46" y="24.07" width="0.57" height="0.57"/><rect class="cls-1" x="75.89" y="24.07" width="0.57" height="0.57"/><path class="cls-1" d="M83.35,25.21v8.15l.58.08v-8.8H77v.57Z"/><rect class="cls-1" x="69.56" y="24.64" width="6.33" height="0.57"/><rect class="cls-1" x="76.46" y="24.64" width="0.57" height="0.57"/><rect class="cls-1" x="75.89" y="24.64" width="0.57" height="0.57"/><polygon class="cls-1" points="53.48 24.07 54.05 24.07 54.05 21.13 60.95 21.13 60.95 20.56 53.48 20.56 53.48 24.07"/><polygon class="cls-1" points="68.99 21.13 68.99 24.07 69.56 24.07 69.56 20.56 62.09 20.56 62.09 21.13 68.99 21.13"/><rect class="cls-1" x="60.95" y="20.56" width="0.57" height="0.57"/><rect class="cls-1" x="61.52" y="20.56" width="0.57" height="0.57"/><rect class="cls-1" x="53.48" y="24.07" width="0.57" height="0.57"/><polygon class="cls-1" points="54.05 24.64 53.48 24.64 53.48 25.21 53.48 27.83 54.05 27.59 54.05 24.64"/><rect class="cls-1" x="68.99" y="24.07" width="0.57" height="0.57"/><polygon class="cls-1" points="68.99 27.6 69.56 27.84 69.56 25.21 69.56 24.64 68.99 24.64 68.99 27.6"/><polygon class="cls-1" points="54.63 21.7 60.95 21.7 60.95 21.13 54.05 21.13 54.05 24.07 54.63 24.07 54.63 21.7"/><polygon class="cls-1" points="68.42 21.7 68.42 24.07 68.99 24.07 68.99 21.13 62.09 21.13 62.09 21.7 68.42 21.7"/><rect class="cls-1" x="60.95" y="21.13" width="0.57" height="0.57"/><rect class="cls-1" x="61.52" y="21.13" width="0.57" height="0.57"/><polygon class="cls-1" points="54.05 27.59 54.63 27.35 54.63 24.07 54.05 24.07 54.05 24.64 54.05 27.59"/><polygon class="cls-1" points="68.42 27.35 68.99 27.6 68.99 24.64 68.99 24.07 68.42 24.07 68.42 27.35"/><path class="cls-1" d="M87.27,37.1l.41-3.18a6.9,6.9,0,0,1-3.18.7v1.11Z"/><path class="cls-1" d="M38.54,35.59v-1a7,7,0,0,1-3.2-.69l.3,2.35,1,0Z"/><path class="cls-1" d="M86.05,37.77l.48,3a.88.88,0,0,0,0,.15l.2-2.81Z"/><path class="cls-1" d="M42.69,33.69l-.37.15a11.43,11.43,0,0,1-2.63.69v.64Z"/><polygon class="cls-1" points="53.48 29.63 47.86 32.41 53.48 30.49 53.48 29.63"/><path class="cls-1" d="M39.12,35.39v-.8a5.72,5.72,0,0,1-.58,0v1Z"/><path class="cls-1" d="M39.5,35.26l.19-.09v-.64l-.57.06v.8Z"/><polygon class="cls-1" points="77.65 33.62 69.56 29.63 69.56 30.59 77.65 33.62"/><path class="cls-1" d="M80.71,33.84l-.22-.09,2.86,1.42v-.64a11.17,11.17,0,0,1-2.62-.68Z"/><path class="cls-1" d="M84.5,35.73V34.62l-.57,0v.85Z"/><path class="cls-1" d="M83.93,35.45V34.6l-.58-.07v.64Z"/><polygon class="cls-1" points="66.05 29.27 68.42 30.16 68.42 29.27 66.05 29.27"/><polygon class="cls-1" points="54.63 30.1 57.05 29.27 54.63 29.27 54.63 30.1"/><polygon class="cls-1" points="56.53 28.13 60.4 28.13 60.95 27.94 60.95 25.95 56.53 28.13"/><polygon class="cls-1" points="55.37 28.7 54.63 29.07 54.63 29.27 57.05 29.27 58.73 28.7 55.37 28.7"/><polygon class="cls-1" points="56.53 28.13 55.37 28.7 58.73 28.7 60.4 28.13 56.53 28.13"/><polygon class="cls-1" points="62.09 27.79 63 28.13 66.52 28.13 62.09 25.95 62.09 27.79"/><polygon class="cls-1" points="68.42 29.07 67.67 28.7 64.52 28.7 66.05 29.27 68.42 29.27 68.42 29.07"/><polygon class="cls-1" points="60.95 25.95 60.95 27.94 61.52 27.75 61.52 25.66 60.95 25.95"/><polygon class="cls-1" points="63 28.13 64.52 28.7 67.67 28.7 66.52 28.13 63 28.13"/><polygon class="cls-1" points="61.52 25.66 61.52 25.66 61.52 27.75 61.76 27.67 62.09 27.79 62.09 25.95 61.52 25.66"/><polygon class="cls-1" points="54.05 30.3 54.05 29.35 53.48 29.63 53.48 30.49 54.05 30.3"/><polygon class="cls-1" points="68.99 30.38 69.56 30.59 69.56 29.63 68.99 29.35 68.99 30.38"/><polygon class="cls-1" points="54.21 29.27 54.05 29.35 54.05 30.3 54.63 30.1 54.63 29.27 54.21 29.27"/><polygon class="cls-1" points="54.63 29.27 54.63 29.07 54.21 29.27 54.63 29.27"/><polygon class="cls-1" points="68.99 29.35 68.83 29.27 68.42 29.27 68.42 30.16 68.99 30.38 68.99 29.35"/><polygon class="cls-1" points="68.42 29.27 68.83 29.27 68.42 29.07 68.42 29.27"/><path class="cls-1" d="M86.53,40.79l-.48-3-1.37-.68A12.59,12.59,0,0,1,86.53,40.79Z"/><polygon class="cls-1" points="38.55 35.59 36.67 36.23 35.64 36.27 35.75 37.11 38.55 35.73 38.55 35.59"/><polygon class="cls-1" points="61.51 55.64 62.73 42.11 60.3 42.11 61.51 55.64"/><path class="cls-1" d="M36.26,38.13l.2,2.77a12.52,12.52,0,0,1,1.87-3.79Z"/><polygon class="cls-1" points="61.51 62.01 61.51 61.99 61.49 61.81 61.51 62.01"/><polygon class="cls-1" points="53.48 31.41 53.48 30.49 47.86 32.41 44.48 34.08 53.48 31.41"/><polygon class="cls-1" points="39.12 35.39 38.55 35.59 38.55 35.73 39.12 35.45 39.12 35.39"/><polygon class="cls-1" points="39.5 35.26 39.12 35.39 39.12 35.45 39.5 35.26"/><polygon class="cls-1" points="69.56 31.41 78.59 34.09 77.65 33.62 69.56 30.59 69.56 31.41"/><polygon class="cls-1" points="68.42 31.08 68.42 30.16 66.05 29.27 62.09 29.27 60.95 29.27 57.05 29.27 54.63 30.1 54.63 31.07 59.18 29.72 60.19 40.96 62.83 40.96 63.84 29.72 68.42 31.08"/><polygon class="cls-1" points="60.95 28.13 60.95 27.94 60.4 28.13 60.95 28.13"/><polygon class="cls-1" points="58.73 28.7 57.05 29.27 60.95 29.27 60.95 28.7 58.73 28.7"/><polygon class="cls-1" points="60.4 28.13 58.73 28.7 60.95 28.7 60.95 28.13 60.4 28.13"/><polygon class="cls-1" points="62.09 28.13 63 28.13 62.09 27.79 62.09 28.13"/><polygon class="cls-1" points="62.09 28.7 62.09 29.27 66.05 29.27 64.52 28.7 62.09 28.7"/><polygon class="cls-1" points="61.52 28.7 60.95 28.7 60.95 29.27 62.09 29.27 62.09 28.7 61.52 28.7"/><polygon class="cls-1" points="60.95 27.94 60.95 28.13 60.95 28.7 61.52 28.7 61.52 27.75 60.95 27.94"/><polygon class="cls-1" points="62.09 28.13 62.09 28.7 64.52 28.7 63 28.13 62.09 28.13"/><polygon class="cls-1" points="62.09 27.79 61.76 27.67 61.52 27.75 61.52 28.7 62.09 28.7 62.09 28.13 62.09 27.79"/><polygon class="cls-1" points="60.24 41.53 60.3 42.11 62.73 42.11 62.78 41.53 60.24 41.53"/><polygon class="cls-1" points="54.05 30.3 53.48 30.49 53.48 31.41 54.05 31.24 54.05 30.3"/><polygon class="cls-1" points="69.56 31.41 69.56 30.59 68.99 30.38 68.99 31.25 69.56 31.41"/><polygon class="cls-1" points="60.24 41.53 62.78 41.53 62.83 40.96 60.19 40.96 60.24 41.53"/><polygon class="cls-1" points="54.05 31.24 54.63 31.07 54.63 30.1 54.05 30.3 54.05 31.24"/><polygon class="cls-1" points="68.99 30.38 68.42 30.16 68.42 31.08 68.99 31.25 68.99 30.38"/><path class="cls-1" d="M35.21,37.38l-.6-4.63A5.75,5.75,0,0,0,38.54,34v-.57A5.17,5.17,0,0,1,35,32.35l-1.19-1.22L35.6,44.86l-.53-7.41Z"/><path class="cls-1" d="M88.41,32.75l-.59,4.62.16.08-.54,7.29,1.75-13.56L88,32.35a5.14,5.14,0,0,1-3.5,1.11V34A5.7,5.7,0,0,0,88.41,32.75Z"/><path class="cls-1" d="M42.09,33.32l9.48-4.05H50.11l-8.22,3.52a10.38,10.38,0,0,1-2.2.57v.57a10.57,10.57,0,0,0,2.4-.61Z"/><polygon class="cls-1" points="53.48 27.83 52.79 28.13 53.48 28.13 53.48 27.83"/><polygon class="cls-1" points="52.79 28.7 51.45 28.7 50.11 29.27 51.57 29.27 52.03 29.08 52.79 28.7"/><polygon class="cls-1" points="53.48 28.36 53.48 28.13 52.79 28.13 51.45 28.7 52.79 28.7 53.48 28.36"/><path class="cls-1" d="M39.12,34v-.56a5.72,5.72,0,0,1-.58,0V34Z"/><path class="cls-1" d="M39.69,33.36l-.57.08V34c.18,0,.37,0,.57-.07Z"/><path class="cls-1" d="M72.91,29.27H71.46l9.47,4.05h0a10.85,10.85,0,0,0,2.42.61v-.57a10.53,10.53,0,0,1-2.2-.57Z"/><polygon class="cls-1" points="70.24 28.13 69.56 27.84 69.56 28.13 70.24 28.13"/><polygon class="cls-1" points="71.15 29.14 71.46 29.27 72.91 29.27 71.57 28.7 70.26 28.7 71.15 29.14"/><polygon class="cls-1" points="69.56 28.36 70.26 28.7 71.57 28.7 70.24 28.13 69.56 28.13 69.56 28.36"/><path class="cls-1" d="M83.93,33.44V34l.57,0v-.57A5.52,5.52,0,0,1,83.93,33.44Z"/><path class="cls-1" d="M83.35,33.93l.58.08v-.57l-.58-.08Z"/><polygon class="cls-1" points="60.95 24.67 60.95 24.64 54.63 27.35 54.63 27.79 60.95 24.67"/><polygon class="cls-1" points="62.09 24.67 68.42 27.79 68.42 27.35 62.09 24.65 62.09 24.67"/><polygon class="cls-1" points="60.95 24.64 60.95 24.67 61.38 24.46 60.95 24.64"/><polygon class="cls-1" points="62.09 24.65 61.8 24.53 62.09 24.67 62.09 24.65"/><polygon class="cls-1" points="53.94 28.13 54.05 28.08 54.05 27.59 53.48 27.83 53.48 28.13 53.94 28.13"/><polygon class="cls-1" points="53.48 28.13 53.48 28.36 53.94 28.13 53.48 28.13"/><polygon class="cls-1" points="68.99 28.08 69.1 28.13 69.56 28.13 69.56 27.84 68.99 27.6 68.99 28.08"/><polygon class="cls-1" points="69.56 28.13 69.1 28.13 69.56 28.36 69.56 28.13"/><polygon class="cls-1" points="54.63 27.35 54.05 27.59 54.05 28.08 54.63 27.79 54.63 27.35"/><polygon class="cls-1" points="68.99 28.08 68.99 27.6 68.42 27.35 68.42 27.79 68.99 28.08"/><path class="cls-1" d="M36.58,42.62l.16,2.29a19.43,19.43,0,0,1,1.8-6.06V37.77A14.87,14.87,0,0,0,36.58,42.62Z"/><path class="cls-1" d="M84.5,37.8v1.09a19.12,19.12,0,0,1,1.78,6v0l.17-2.3A15,15,0,0,0,84.5,37.8Z"/><polygon class="cls-1" points="59.35 42.11 61.49 61.81 59.72 42.11 59.35 42.11"/><polygon class="cls-1" points="61.51 61.99 61.52 62.06 63.68 42.11 63.3 42.11 61.51 61.99"/><path class="cls-1" d="M41.46,35.57l-1.64.8-.13.12v.78a3.92,3.92,0,0,1,1.66-1.08L53.48,32.6V32Z"/><path class="cls-1" d="M39.12,37a6.88,6.88,0,0,0-.58.73v1.08a9.38,9.38,0,0,1,.58-.91Z"/><path class="cls-1" d="M39.69,37.27v-.78a5.9,5.9,0,0,0-.57.55v.9A5.3,5.3,0,0,1,39.69,37.27Z"/><path class="cls-1" d="M81.61,35.58,69.56,32v.6l12.11,3.58a3.88,3.88,0,0,1,1.68,1.1V36.5l-.2-.16Z"/><path class="cls-1" d="M83.93,37.06V38a10.26,10.26,0,0,1,.57.92V37.8A8.52,8.52,0,0,0,83.93,37.06Z"/><path class="cls-1" d="M83.35,36.5v.79a5.47,5.47,0,0,1,.58.68v-.91A6.16,6.16,0,0,0,83.35,36.5Z"/><polygon class="cls-1" points="54.63 31.67 54.63 32.26 58.17 31.21 59.23 40.96 59.62 40.96 58.67 30.47 54.63 31.67"/><polygon class="cls-1" points="64.35 30.47 63.41 40.96 63.8 40.96 64.86 31.21 68.42 32.27 68.42 31.67 64.35 30.47"/><polygon class="cls-1" points="59.67 41.53 59.29 41.53 59.35 42.11 59.72 42.11 59.67 41.53"/><polygon class="cls-1" points="63.36 41.53 63.3 42.11 63.68 42.11 63.74 41.53 63.36 41.53"/><polygon class="cls-1" points="53.48 32.01 53.48 32.6 54.05 32.43 54.05 31.84 53.48 32.01"/><polygon class="cls-1" points="68.99 31.84 68.99 32.44 69.56 32.61 69.56 32.01 68.99 31.84"/><polygon class="cls-1" points="63.41 40.96 63.36 41.53 63.74 41.53 63.8 40.96 63.41 40.96"/><polygon class="cls-1" points="59.23 40.96 59.29 41.53 59.67 41.53 59.62 40.96 59.23 40.96"/><polygon class="cls-1" points="54.05 31.84 54.05 32.43 54.63 32.26 54.63 31.67 54.05 31.84"/><polygon class="cls-1" points="68.42 31.67 68.42 32.27 68.99 32.44 68.99 31.84 68.42 31.67"/><path class="cls-1" d="M87.68,33.92l-.41,3.18.55.27.59-4.62A5.7,5.7,0,0,1,84.5,34v.59A6.9,6.9,0,0,0,87.68,33.92Z"/><path class="cls-1" d="M86.57,41v-.1a.88.88,0,0,1,0-.15Z"/><path class="cls-1" d="M35.58,37.19l0-.92h.11l-.3-2.35a7,7,0,0,0,3.2.69V34a5.75,5.75,0,0,1-3.93-1.28l.6,4.63.2-.1Z"/><path class="cls-1" d="M42.69,33.69l8.94-4.42h-.06l-9.48,4.05h0a10.57,10.57,0,0,1-2.4.61v.6a11.43,11.43,0,0,0,2.63-.69Z"/><polygon class="cls-1" points="51.57 29.27 51.63 29.27 52.03 29.08 51.57 29.27"/><path class="cls-1" d="M39.12,34.59V34l-.58,0v.58A5.72,5.72,0,0,0,39.12,34.59Z"/><path class="cls-1" d="M39.69,34.53v-.6c-.2,0-.39.06-.57.07v.59Z"/><path class="cls-1" d="M80.93,33.32l-9.47-4.05h0l9.07,4.48.22.09h0a11.17,11.17,0,0,0,2.62.68v-.6a10.85,10.85,0,0,1-2.42-.61Z"/><polygon class="cls-1" points="71.42 29.27 71.46 29.27 71.15 29.14 71.42 29.27"/><path class="cls-1" d="M84.5,34.62V34l-.57,0v.59Z"/><path class="cls-1" d="M83.35,34.53l.58.07V34l-.58-.08Z"/><polygon class="cls-1" points="62.73 42.11 61.51 55.64 60.3 42.11 59.72 42.11 61.49 61.81 61.51 61.99 63.3 42.11 62.73 42.11"/><polygon class="cls-1" points="35.52 36.27 35.58 37.19 35.75 37.11 35.64 36.27 35.52 36.27"/><path class="cls-1" d="M38.54,37l-.21.1a12.52,12.52,0,0,0-1.87,3.79l.12,1.72a14.87,14.87,0,0,1,2-4.85Z"/><path class="cls-1" d="M84.68,37.09,84.5,37v.79a15,15,0,0,1,2,4.85L86.57,41l0-.25A12.59,12.59,0,0,0,84.68,37.09Z"/><path class="cls-1" d="M39.69,36.44v.05l.13-.12Z"/><polygon class="cls-1" points="44.48 34.08 41.46 35.57 53.48 32.01 53.48 31.41 44.48 34.08"/><path class="cls-1" d="M38.54,37v.76a6.88,6.88,0,0,1,.58-.73v-.32Z"/><path class="cls-1" d="M39.69,36.49v-.05l-.57.28V37A5.9,5.9,0,0,1,39.69,36.49Z"/><path class="cls-1" d="M83.35,36.5v-.06l-.2-.1Z"/><polygon class="cls-1" points="69.56 32.01 81.61 35.58 78.59 34.09 69.56 31.41 69.56 32.01"/><path class="cls-1" d="M83.93,36.72v.34a8.52,8.52,0,0,1,.57.74V37Z"/><path class="cls-1" d="M83.35,36.44v.06a6.16,6.16,0,0,1,.58.56v-.34Z"/><polygon class="cls-1" points="54.63 31.07 54.63 31.67 58.67 30.47 59.62 40.96 60.19 40.96 59.18 29.72 54.63 31.07"/><polygon class="cls-1" points="68.42 31.67 68.42 31.08 63.84 29.72 62.83 40.96 63.41 40.96 64.35 30.47 68.42 31.67"/><polygon class="cls-1" points="59.67 41.53 59.72 42.11 60.3 42.11 60.24 41.53 59.67 41.53"/><polygon class="cls-1" points="62.73 42.11 63.3 42.11 63.36 41.53 62.78 41.53 62.73 42.11"/><polygon class="cls-1" points="53.48 31.41 53.48 32.01 54.05 31.84 54.05 31.24 53.48 31.41"/><polygon class="cls-1" points="68.99 31.25 68.99 31.84 69.56 32.01 69.56 31.41 68.99 31.25"/><polygon class="cls-1" points="62.83 40.96 62.78 41.53 63.36 41.53 63.41 40.96 62.83 40.96"/><polygon class="cls-1" points="60.19 40.96 59.62 40.96 59.67 41.53 60.24 41.53 60.19 40.96"/><polygon class="cls-1" points="54.05 31.84 54.63 31.67 54.63 31.07 54.05 31.24 54.05 31.84"/><polygon class="cls-1" points="68.42 31.08 68.42 31.67 68.99 31.84 68.99 31.25 68.42 31.08"/><path class="cls-1" d="M73.07,81.39A66.37,66.37,0,0,1,61.52,89a31.92,31.92,0,0,1-11.79-7.57h-.68a40.15,40.15,0,0,0,12.25,8.1l.22.09.23-.09A40.09,40.09,0,0,0,74,81.39h-.92Z"/><path class="cls-1" d="M42.42,72.27l.65-.1a43.82,43.82,0,0,1-5.21-11.66l-1-13.71-.29-.46-.36,3.43-.63-4.91,1.13,15.82a46.92,46.92,0,0,0,10.64,19c.13-.09.27-.18.4-.29A45.6,45.6,0,0,1,42.42,72.27Z"/><path class="cls-1" d="M86.69,48.77l-.56,10.9-.93.16,0,.57A44.57,44.57,0,0,1,79.5,72.85,4.67,4.67,0,0,1,78.76,75a21.62,21.62,0,0,1-3.48,4.33,2.76,2.76,0,0,0,.39.28A46.74,46.74,0,0,0,86.29,60.57l1.15-15.83-.64,5Z"/><path class="cls-1" d="M61.52,88.34a38.91,38.91,0,0,1-10.76-7h-1A31.92,31.92,0,0,0,61.52,89a66.37,66.37,0,0,0,11.55-7.57h-.8A38.48,38.48,0,0,1,61.52,88.34Z"/><path class="cls-1" d="M78.76,75a4.67,4.67,0,0,0,.74-2.19,44.16,44.16,0,0,1-4.7,6.06,4.19,4.19,0,0,0,.48.46A21.62,21.62,0,0,0,78.76,75Z"/><path class="cls-1" d="M43.07,72.17l-.65.1a45.6,45.6,0,0,0,5.35,7.1c.17-.14.31-.3.47-.45A44.71,44.71,0,0,1,43.07,72.17Z"/><path class="cls-1" d="M49.73,81.39c-.7-.68-1.36-1.35-2-2-.13.11-.27.2-.4.29.54.58,1.09,1.16,1.68,1.73h.68Z"/><path class="cls-1" d="M48.24,78.92c-.16.15-.3.31-.47.45.6.67,1.26,1.34,2,2h1C49.86,80.58,49,79.76,48.24,78.92Z"/><path class="cls-1" d="M75.28,79.37c-.71.7-1.45,1.37-2.21,2H74c.59-.57,1.14-1.15,1.68-1.74A2.76,2.76,0,0,1,75.28,79.37Z"/><path class="cls-1" d="M72.27,81.39h.8c.76-.65,1.5-1.32,2.21-2a4.19,4.19,0,0,1-.48-.46C74,79.75,73.17,80.58,72.27,81.39Z"/><polygon class="cls-1" points="61.52 24.41 61.52 24.39 61.38 24.46 61.51 24.4 61.52 24.41"/><polygon class="cls-1" points="61.8 24.53 61.52 24.39 61.52 24.39 61.52 24.41 61.8 24.53"/><polygon class="cls-1" points="85.2 59.83 86.13 59.67 86.69 48.77 86.28 44.95 85.2 59.83"/><polygon class="cls-1" points="36.74 44.93 36.59 46.34 36.88 46.8 36.74 44.91 36.74 44.93"/><path class="cls-1" d="M84.5,36.19l1.38.52.17,1.06.73.36-.2,2.81c0,.15.1.31.14.46l.55-4.3L84.5,35.73Z"/><polygon class="cls-1" points="47.86 32.41 53.48 29.63 53.48 29.27 53.02 29.27 42.69 33.69 39.69 35.17 39.69 35.2 47.86 32.41"/><polygon class="cls-1" points="53.02 29.27 53.48 29.27 53.48 29.07 53.02 29.27"/><polygon class="cls-1" points="39.69 35.17 39.5 35.26 39.69 35.2 39.69 35.17"/><path class="cls-1" d="M69.56,29.27v.36l8.09,4,2.37.89,2,.59a4.65,4.65,0,0,1,1.24.62l.11,0v-.59l-2.86-1.42L70,29.27Z"/><polygon class="cls-1" points="70 29.27 69.56 29.08 69.56 29.27 70 29.27"/><polygon class="cls-1" points="84.5 36.19 84.5 35.73 83.93 35.45 83.93 35.98 84.5 36.19"/><polygon class="cls-1" points="83.93 35.98 83.93 35.45 83.36 35.17 83.36 35.76 83.93 35.98"/><polygon class="cls-1" points="60.95 25.95 60.95 25.89 55.7 28.13 56.53 28.13 60.95 25.95"/><polygon class="cls-1" points="54.63 29.07 55.37 28.7 54.63 28.7 54.63 29.07"/><polygon class="cls-1" points="55.7 28.13 54.63 28.59 54.63 28.7 55.37 28.7 56.53 28.13 55.7 28.13"/><polygon class="cls-1" points="66.52 28.13 67.33 28.13 62.09 25.89 62.09 25.95 66.52 28.13"/><polygon class="cls-1" points="67.67 28.7 68.42 29.07 68.42 28.7 67.67 28.7"/><polygon class="cls-1" points="61.52 25.66 61.52 25.65 61.51 25.64 60.95 25.89 60.95 25.95 61.52 25.66"/><polygon class="cls-1" points="68.42 28.59 67.33 28.13 66.52 28.13 67.67 28.7 68.42 28.7 68.42 28.59"/><polygon class="cls-1" points="61.52 25.66 61.52 25.66 62.09 25.95 62.09 25.89 61.52 25.65 61.52 25.66"/><polygon class="cls-1" points="54.05 29.27 53.48 29.27 53.48 29.63 54.05 29.35 54.05 29.27"/><polygon class="cls-1" points="54.05 28.83 53.48 29.07 53.48 29.27 54.05 29.27 54.05 28.83"/><polygon class="cls-1" points="68.99 29.35 69.56 29.63 69.56 29.27 68.99 29.27 68.99 29.35"/><polygon class="cls-1" points="68.99 29.27 69.56 29.27 69.56 29.08 68.99 28.84 68.99 29.27"/><polygon class="cls-1" points="54.05 29.27 54.05 29.35 54.21 29.27 54.05 29.27"/><polygon class="cls-1" points="54.63 29.07 54.63 28.7 54.36 28.7 54.05 28.83 54.05 29.27 54.21 29.27 54.63 29.07"/><polygon class="cls-1" points="54.36 28.7 54.63 28.7 54.63 28.59 54.36 28.7"/><polygon class="cls-1" points="68.99 29.35 68.99 29.27 68.83 29.27 68.99 29.35"/><polygon class="cls-1" points="68.42 28.7 68.42 29.07 68.83 29.27 68.99 29.27 68.99 28.84 68.67 28.7 68.42 28.7"/><polygon class="cls-1" points="68.67 28.7 68.42 28.59 68.42 28.7 68.67 28.7"/><path class="cls-1" d="M84.68,37.09l1.37.68-.17-1.06-1.38-.52v.66Z"/><path class="cls-1" d="M38.33,37.11l.21-.28v-1.1l-2.79,1.38.55,4.29c.05-.16.11-.33.16-.5l-.2-2.77Z"/><path class="cls-1" d="M44.48,34.07l3.38-1.66L39.69,35.2v.59A4.67,4.67,0,0,1,41,35.1Z"/><path class="cls-1" d="M39.12,35.45l-.58.28v1.1a6.47,6.47,0,0,1,.58-.59Z"/><path class="cls-1" d="M39.12,36.24a4.9,4.9,0,0,1,.57-.45V35.2l-.19.06-.38.19Z"/><path class="cls-1" d="M83.35,35.76l-.11,0,.11.08Z"/><polygon class="cls-1" points="80.02 34.51 77.65 33.62 78.59 34.09 80.02 34.51"/><path class="cls-1" d="M83.93,36.26a7.94,7.94,0,0,1,.57.59v-.66L83.93,36Z"/><path class="cls-1" d="M83.93,36.26V36l-.58-.22v0A5.09,5.09,0,0,1,83.93,36.26Z"/><polygon class="cls-1" points="87.82 37.37 86.92 44.33 86.69 48.77 86.8 49.77 87.44 44.74 87.98 37.45 87.82 37.37"/><polygon class="cls-1" points="36.59 46.34 36.13 45.61 35.99 43.45 35.21 37.38 35.06 37.45 35.59 44.86 36.23 49.77 36.59 46.34"/><polygon class="cls-1" points="52.03 29.08 52.9 28.7 52.79 28.7 52.03 29.08"/><polygon class="cls-1" points="53.48 28.36 52.79 28.7 52.9 28.7 53.48 28.45 53.48 28.36"/><polygon class="cls-1" points="71.15 29.14 70.26 28.7 70.12 28.7 71.15 29.14"/><polygon class="cls-1" points="70.12 28.7 70.26 28.7 69.56 28.36 69.56 28.46 70.12 28.7"/><polygon class="cls-1" points="60.95 24.67 54.63 27.79 54.63 27.97 60.95 25.27 60.95 24.67"/><polygon class="cls-1" points="68.42 27.98 68.42 27.79 62.09 24.67 62.09 25.27 68.42 27.98"/><polygon class="cls-1" points="61.51 25.02 61.52 25.03 61.52 24.41 61.51 24.4 61.38 24.46 60.95 24.67 60.95 25.27 61.51 25.02"/><polygon class="cls-1" points="61.52 25.03 62.09 25.27 62.09 24.67 61.8 24.53 61.52 24.41 61.52 25.03"/><polygon class="cls-1" points="54.05 28.08 53.94 28.13 54.05 28.13 54.05 28.08"/><polygon class="cls-1" points="54.05 28.21 54.05 28.13 53.94 28.13 53.48 28.36 53.48 28.45 54.05 28.21"/><polygon class="cls-1" points="69.1 28.13 68.99 28.08 68.99 28.13 69.1 28.13"/><polygon class="cls-1" points="68.99 28.22 69.56 28.46 69.56 28.36 69.1 28.13 68.99 28.13 68.99 28.22"/><polygon class="cls-1" points="54.24 28.13 54.63 27.97 54.63 27.79 54.05 28.08 54.05 28.13 54.24 28.13"/><polygon class="cls-1" points="54.05 28.13 54.05 28.21 54.24 28.13 54.05 28.13"/><polygon class="cls-1" points="68.42 27.98 68.78 28.13 68.99 28.13 68.99 28.08 68.42 27.79 68.42 27.98"/><polygon class="cls-1" points="68.99 28.13 68.78 28.13 68.99 28.22 68.99 28.13"/><path class="cls-1" d="M36.74,44.91l-.16-2.29a22.17,22.17,0,0,0-.41,2.25L36,43.45l.14,2.16.46.73.15-1.41Z"/><path class="cls-1" d="M86.45,42.65,86.28,45l.41,3.82.23-4.44-.07.54A20.13,20.13,0,0,0,86.45,42.65Z"/><path class="cls-1" d="M39.82,36.37l1.64-.8-.27.08A4.09,4.09,0,0,0,39.82,36.37Z"/><path class="cls-1" d="M81.84,35.65l-.23-.07,1.54.76A4.12,4.12,0,0,0,81.84,35.65Z"/><path class="cls-1" d="M86.72,41.4c0-.15-.09-.31-.14-.46V41L87,43.52l0,.81.9-7-.55-.27Z"/><polygon class="cls-1" points="35.41 37.28 35.21 37.38 35.99 43.45 35.58 37.19 35.41 37.28"/><polygon class="cls-1" points="51.63 29.27 42.69 33.69 53.02 29.27 51.63 29.27"/><polygon class="cls-1" points="53.48 29.07 53.48 28.7 52.9 28.7 52.03 29.08 51.63 29.27 53.02 29.27 53.48 29.07"/><polygon class="cls-1" points="52.9 28.7 53.48 28.7 53.48 28.45 52.9 28.7"/><path class="cls-1" d="M82,35.1l-2-.59,3.22,1.21A4.65,4.65,0,0,0,82,35.1Z"/><polygon class="cls-1" points="80.49 33.75 71.42 29.27 70 29.27 80.49 33.75"/><polygon class="cls-1" points="70.12 28.7 69.56 28.7 69.56 29.08 70 29.27 71.42 29.27 71.15 29.14 70.12 28.7"/><polygon class="cls-1" points="69.56 28.7 70.12 28.7 69.56 28.46 69.56 28.7"/><polygon class="cls-1" points="55.7 28.13 60.95 25.89 60.95 25.27 54.63 27.97 54.63 28.13 55.7 28.13"/><polygon class="cls-1" points="54.63 28.13 54.63 28.59 55.7 28.13 54.63 28.13"/><polygon class="cls-1" points="62.09 25.89 67.33 28.13 68.42 28.13 68.42 27.98 62.09 25.27 62.09 25.89"/><polygon class="cls-1" points="61.52 25.65 61.52 25.03 61.51 25.02 60.95 25.27 60.95 25.89 61.51 25.64 61.52 25.65"/><polygon class="cls-1" points="68.42 28.13 67.33 28.13 68.42 28.59 68.42 28.13"/><polygon class="cls-1" points="62.09 25.89 62.09 25.27 61.52 25.03 61.52 25.65 62.09 25.89"/><polygon class="cls-1" points="54.05 28.7 53.48 28.7 53.48 29.07 54.05 28.83 54.05 28.7"/><polygon class="cls-1" points="54.05 28.21 53.48 28.45 53.48 28.7 54.05 28.7 54.05 28.21"/><polygon class="cls-1" points="68.99 28.84 69.56 29.08 69.56 28.7 68.99 28.7 68.99 28.84"/><polygon class="cls-1" points="68.99 28.22 68.99 28.7 69.56 28.7 69.56 28.46 68.99 28.22"/><polygon class="cls-1" points="54.63 27.97 54.24 28.13 54.63 28.13 54.63 27.97"/><polygon class="cls-1" points="54.05 28.7 54.05 28.83 54.36 28.7 54.05 28.7"/><polygon class="cls-1" points="54.63 28.59 54.63 28.13 54.24 28.13 54.05 28.21 54.05 28.7 54.36 28.7 54.63 28.59"/><polygon class="cls-1" points="68.78 28.13 68.42 27.98 68.42 28.13 68.78 28.13"/><polygon class="cls-1" points="68.99 28.84 68.99 28.7 68.67 28.7 68.99 28.84"/><polygon class="cls-1" points="68.42 28.59 68.67 28.7 68.99 28.7 68.99 28.22 68.78 28.13 68.42 28.13 68.42 28.59"/><path class="cls-1" d="M84.5,37l.18.08-.18-.24Z"/><path class="cls-1" d="M36.58,42.62l-.12-1.72c-.05.17-.11.34-.16.5l-.55-4.29-.17.08L36,43.45l.18,1.42A22.17,22.17,0,0,1,36.58,42.62Z"/><path class="cls-1" d="M86.57,41l-.12,1.61a20.13,20.13,0,0,1,.4,2.22l.07-.54,0-.81Z"/><path class="cls-1" d="M38.33,37.11l.21-.1v-.18Z"/><path class="cls-1" d="M41.19,35.65l.27-.08,3-1.5L41,35.1a4.67,4.67,0,0,0-1.33.69v.65l.13-.07A4.09,4.09,0,0,1,41.19,35.65Z"/><path class="cls-1" d="M39.12,36.24a6.47,6.47,0,0,0-.58.59V37l.58-.29Z"/><path class="cls-1" d="M39.12,36.24v.48l.57-.28v-.65A4.9,4.9,0,0,0,39.12,36.24Z"/><path class="cls-1" d="M83.24,35.72,80,34.51l-1.43-.42,3,1.49.23.07a4.12,4.12,0,0,1,1.31.69l.2.1V35.8Z"/><path class="cls-1" d="M83.93,36.26v.46l.57.29v-.16A7.94,7.94,0,0,0,83.93,36.26Z"/><path class="cls-1" d="M83.35,35.8v.64l.58.28v-.46A5.09,5.09,0,0,0,83.35,35.8Z"/><path class="cls-1" d="M128.13,56.1c-1.67.58-3.29,1.1-5,1.67V70.71c0,2.76-.52,4.22-2.14,5.11S117.12,77,113.73,77a20.34,20.34,0,0,0-1.61-5.43c1.88.1,3.75.1,4.38,0s.89-.15.89-.83V59.7l-4.49,1.51-1.62-5.94c1.72-.47,3.81-1,6.11-1.72V44.26H112V38.53h5.38V28.67h5.73v9.86h4.23v5.73h-4.23v7.46l3.91-1.2Zm21.43,3.39a31.39,31.39,0,0,0,10.7,9.81,22.11,22.11,0,0,0-4.12,4.8,37.88,37.88,0,0,1-9.71-10.49v13.2h-5.89V63.72a32.43,32.43,0,0,1-11.26,10.69,26.72,26.72,0,0,0-3.81-4.69,28.37,28.37,0,0,0,11.94-10.23h-8.86V54h12V48.8h5.89V54h12.26v5.53Zm-7.14-19A42.42,42.42,0,0,1,131.94,52.4,37.52,37.52,0,0,0,127.71,48a29.24,29.24,0,0,0,9.23-9.39Zm-8.76,1.2h-5V31.07h29.73V41.4h-5.27V36.34H133.66Zm15.17-3.55c3.5,3.08,7.83,7.41,9.86,10.38l-4.8,3.34a61.13,61.13,0,0,0-9.54-10.69Z"/><path class="cls-1" d="M197.19,67.79a109,109,0,0,1,14.39,5.42l-5.16,4.17a85.85,85.85,0,0,0-15-6.15l3.34-3.44H179.51l4.85,3.39a62.19,62.19,0,0,1-15.75,6.25,40.13,40.13,0,0,0-4.23-4.22,56,56,0,0,0,14.5-5.42H164.64V62.67h6.94V39.73H184c.16-.73.32-1.52.47-2.35H166.05V32.22h19.19c.11-1.31.26-2.56.32-3.65l6.52.62-.53,3h18.21v5.16h-19.2c-.21.83-.31,1.62-.47,2.35h14.19V62.67H211v5.12Zm-19.61-24.2v2.24H198V43.59ZM198,49.32H177.58v2H198Zm-20.44,5.43v2H198v-2Zm0,7.92H198V60.28H177.58Z"/><path class="cls-1" d="M232.76,61.94a53.27,53.27,0,0,0-3.13-5.73V77.38h-6V58.61A48.12,48.12,0,0,1,218,68.93,33.78,33.78,0,0,0,215.08,63c2.92-3.34,5.84-8.92,7.72-14h-7V43.27h7.88V37.38c-2,.31-4,.63-5.9.83a18.72,18.72,0,0,0-1.67-4.79,79.94,79.94,0,0,0,16.8-4.28l3.49,5.06a46.45,46.45,0,0,1-6.73,1.93v7.14h6.89v5.79h-6.89v.42c1.52,1.46,5.79,6.36,6.78,7.56Zm25.72,2.25V77.33h-6.11v-12L236.62,68l-1-5.89,16.74-2.87V28.67h6.11V58.19l5.16-.89,1,5.79Zm-13.1-7.25c-1.61-2.3-5.26-5.63-8.29-8l4-3.55A46.21,46.21,0,0,1,249.61,53Zm1.36-13.77A39.12,39.12,0,0,0,239,35.35L243,31.8c2.81,2.14,6.47,5.21,8,7.51Z"/><path class="cls-1" d="M286,56.52c-1.83.52-3.71,1-5.58,1.51V70.5c0,3-.58,4.48-2.35,5.47s-4.23,1.1-7.88,1.1a26.67,26.67,0,0,0-1.77-5.63c2,0,4.17,0,4.85,0s1-.26,1-1V59.7L269.17,61l-1.61-5.89c1.93-.37,4.17-.89,6.67-1.51V44.32h-6V38.58h6V28.67h6.16v9.91h5.11v5.74h-5.11V52l4.79-1.2Zm28.89-7a38.1,38.1,0,0,1-9.7,17.31,35.29,35.29,0,0,0,12,5.27,27,27,0,0,0-4,5.37,37.11,37.11,0,0,1-13-6.57,47.91,47.91,0,0,1-13.72,6.42,25.57,25.57,0,0,0-3.34-5.64,40,40,0,0,0,12.47-5.11,41.21,41.21,0,0,1-7.41-12.41l1.57-.47h-2.72V48.07h10.28V41.81H286.18V36.08h11.21V28.62h6.15v7.46h11.69v5.73H303.54v6.26h6.26l1.1-.26Zm-20.55,4.17a29.8,29.8,0,0,0,6.16,9.23A28.87,28.87,0,0,0,307,53.65Z"/><path class="cls-1" d="M338,34.59V30.34h3.58v4.25h13.68V30.34h3.57v4.25h12v3.48h-12v4h-3.57v-4H341.6V42H338V38.07H326.53V34.59Zm8.73,10.29V41.09h3.68v3.79h18.28v3.27H350.43V53h15.32v3.23H350.43v4.65h18.84c0,5.63-.61,9.27-1.74,10.8S364.11,74,361,74a39.44,39.44,0,0,1-4-.21l-.92-3.38a38.75,38.75,0,0,0,4.69.31c2.51,0,3.94-.77,4.34-2.1a20.19,20.19,0,0,0,.51-4.45H350.43v13h-3.68v-13h-19V60.84h19V56.19H332.1V53h14.65V48.15h-17.2V44.88Z"/><path class="cls-1" d="M379.94,52.55v-17h5.62a36.62,36.62,0,0,0,1.53-5.58l3.83.52a28.33,28.33,0,0,1-1.58,5.06h7v37c0,2.87-1.37,4.3-4.08,4.3H388L387,73.38c1.48.1,2.86.21,4.14.21,1.12,0,1.73-.77,1.73-2.31V55.93h-9.65q-.3,13.2-4.13,21.39l-2.86-2.61c2.24-5,3.47-11.26,3.62-18.78h-3.42V52.55Zm13-13.61h-9.6V52.55h9.6Zm-1.68,29.27-3,.82a57.13,57.13,0,0,0-3.58-9.36l2.86-.92A70.91,70.91,0,0,1,391.23,68.21Zm-.05-18.93-2.76.71a45.14,45.14,0,0,0-3.68-7.57l2.66-.87A43.81,43.81,0,0,1,391.18,49.28Zm9.7,17.91a41.48,41.48,0,0,0,1-10.39V46.11h14.24V72.2c0,.67.31,1,1,1h1.22a2.8,2.8,0,0,0,1-.21,1.2,1.2,0,0,0,.51-.51c.26-.46.41-2.81.41-7.11l3.32,1a53.77,53.77,0,0,1-.31,6.71A4.1,4.1,0,0,1,422,75.84a6.31,6.31,0,0,1-3.17.61H417c-2.91,0-4.34-1.33-4.34-3.89V49.48h-7.3V56.8a45.34,45.34,0,0,1-1.22,11.41,26.84,26.84,0,0,1-4.5,9.06l-2.81-2.51A22.71,22.71,0,0,0,400.88,67.19Zm7.25-30.35a47.17,47.17,0,0,0-2.45-6.24l3.83-.62c.81,2,1.58,4.3,2.4,6.86h9.75v3.64H398.48V36.84Z"/></svg>